<svg id="svg" version="1.1" xmlns="http://www.w3.org/2000/svg" xmlns:xlink="http://www.w3.org/1999/xlink" width="400" height="92.30769230769232" viewBox="0, 0, 400,92.30769230769232"><g id="svgg"><path id="path0" d="M167.167 3.774 C 164.170 4.342,163.308 4.503,161.500 4.833 C 160.446 5.026,159.021 5.290,158.333 5.420 C 157.646 5.551,156.573 5.744,155.950 5.849 C 154.487 6.097,154.333 6.262,154.333 7.584 C 154.333 9.508,154.322 9.498,156.704 9.510 C 161.982 9.536,161.733 8.937,161.798 21.750 C 161.857 33.478,162.045 32.627,159.722 31.197 C 155.959 28.880,152.150 27.864,147.927 28.051 C 145.189 28.172,142.570 28.460,141.667 28.739 C 141.254 28.867,140.729 29.009,140.500 29.055 C 138.252 29.509,133.971 31.993,132.000 33.988 C 130.511 35.495,127.974 39.243,127.584 40.512 C 127.515 40.734,127.406 40.992,127.340 41.083 C 126.907 41.689,126.051 44.904,125.520 47.917 C 124.285 54.934,124.629 63.555,126.387 69.667 C 126.919 71.513,128.455 74.946,129.073 75.667 C 129.191 75.804,129.502 76.292,129.765 76.750 C 130.936 78.790,134.623 81.670,137.417 82.726 C 140.004 83.705,144.091 84.188,146.988 83.859 C 147.918 83.753,148.963 83.667,149.311 83.667 C 150.511 83.667,153.446 82.650,155.647 81.473 C 157.946 80.243,158.634 79.813,161.192 78.007 C 162.175 77.312,162.260 77.379,162.393 78.947 C 162.524 80.501,162.838 82.172,163.052 82.458 C 163.273 82.754,178.005 82.762,178.300 82.467 C 178.575 82.191,178.568 79.761,178.292 79.543 C 178.177 79.453,177.108 79.330,175.917 79.270 C 172.707 79.110,171.952 78.620,171.400 76.333 C 171.219 75.586,171.177 68.824,171.173 39.734 C 171.167 5.381,171.155 4.041,170.862 3.776 C 170.483 3.433,168.970 3.432,167.167 3.774 M101.362 12.125 C 101.136 12.318,100.968 12.755,100.864 13.417 C 100.687 14.546,100.226 16.415,99.999 16.917 C 99.917 17.100,99.775 17.512,99.685 17.833 C 98.040 23.672,93.281 28.374,88.290 29.091 C 86.786 29.307,86.177 30.690,86.829 32.406 L 86.992 32.833 90.568 32.833 C 92.535 32.833,94.337 32.906,94.572 32.996 L 95.000 33.158 95.009 53.454 C 95.013 64.617,95.078 74.237,95.153 74.833 C 95.897 80.790,99.560 83.750,106.167 83.735 C 110.188 83.726,110.811 83.559,114.167 81.597 C 118.100 79.297,118.307 79.044,117.571 77.437 C 117.081 76.366,116.839 76.287,115.872 76.883 C 110.023 80.489,105.881 79.193,104.667 73.376 C 104.296 71.600,104.135 33.738,104.496 33.167 C 104.630 32.955,105.570 32.904,110.702 32.833 L 116.750 32.750 116.799 31.333 C 116.826 30.554,116.806 29.748,116.754 29.542 L 116.660 29.167 110.819 29.167 C 107.111 29.167,104.860 29.104,104.656 28.994 C 104.344 28.827,104.333 28.556,104.333 20.429 C 104.333 12.929,104.305 12.025,104.070 11.934 C 103.474 11.706,101.707 11.830,101.362 12.125 M68.750 13.990 C 66.993 14.440,66.359 14.808,64.737 16.317 C 62.774 18.143,61.248 20.826,60.414 23.917 C 60.291 24.375,60.095 25.050,59.980 25.417 C 59.650 26.467,59.693 32.864,60.037 33.833 C 60.183 34.246,60.354 34.832,60.417 35.136 C 60.480 35.440,60.636 35.890,60.765 36.136 C 60.893 36.382,60.998 36.673,60.999 36.783 C 61.002 37.389,63.169 40.502,64.679 42.068 C 66.524 43.983,66.589 45.084,65.670 58.917 C 65.567 60.475,65.377 62.725,65.248 63.917 C 65.017 66.050,64.805 68.135,64.488 71.417 C 64.399 72.333,64.216 74.061,64.080 75.255 C 63.315 81.994,64.045 84.891,66.933 86.584 C 69.052 87.826,72.114 87.561,74.184 85.956 C 74.590 85.641,75.619 83.965,76.017 82.969 C 76.477 81.820,76.380 78.600,75.652 70.833 C 74.707 60.755,74.074 46.443,74.495 44.687 C 74.723 43.737,75.214 43.029,76.822 41.333 C 79.127 38.903,80.500 36.117,81.074 32.708 C 81.640 29.345,81.229 24.992,80.087 22.250 C 79.001 19.643,78.203 18.192,77.326 17.231 C 74.598 14.243,71.837 13.199,68.750 13.990 M73.000 16.461 C 77.041 18.427,79.880 25.769,78.917 31.761 C 78.333 35.396,77.378 37.380,75.069 39.758 C 73.293 41.587,72.559 42.816,72.244 44.487 C 71.869 46.470,72.488 61.222,73.321 70.167 C 73.590 73.056,74.008 79.447,74.004 80.610 C 73.986 85.574,68.044 86.839,66.406 82.227 C 66.094 81.349,66.201 79.131,66.842 73.167 C 66.936 72.296,67.084 70.758,67.173 69.750 C 67.261 68.742,67.407 67.467,67.497 66.917 C 67.587 66.367,67.740 64.497,67.838 62.763 C 67.936 61.028,68.050 59.554,68.092 59.486 C 68.134 59.418,68.242 57.650,68.331 55.556 C 68.421 53.463,68.581 50.276,68.687 48.475 C 68.973 43.602,68.653 42.667,65.537 39.260 C 63.907 37.478,63.054 35.816,62.408 33.167 C 62.006 31.516,62.005 26.811,62.406 25.687 C 62.549 25.286,62.667 24.817,62.667 24.645 C 62.667 24.472,62.934 23.654,63.261 22.827 C 65.505 17.154,69.310 14.667,73.000 16.461 M212.417 17.341 C 211.775 17.421,210.387 17.560,209.333 17.650 C 208.279 17.739,207.079 17.902,206.667 18.012 C 200.925 19.540,198.419 20.621,194.000 23.477 C 190.238 25.908,186.042 30.365,183.385 34.750 C 182.543 36.141,181.056 39.436,180.639 40.833 C 180.544 41.154,180.407 41.492,180.335 41.583 C 180.264 41.675,180.153 42.012,180.090 42.333 C 180.026 42.654,179.877 43.217,179.757 43.583 C 178.381 47.794,178.165 55.006,179.267 59.917 C 179.761 62.117,181.007 66.067,181.489 66.960 C 181.575 67.120,181.816 67.625,182.024 68.083 C 182.363 68.830,184.053 71.829,184.373 72.250 C 184.442 72.342,184.924 72.979,185.443 73.667 C 190.701 80.632,197.241 85.044,205.333 87.084 C 205.838 87.211,206.550 87.392,206.917 87.486 C 210.655 88.444,218.164 88.260,222.750 87.098 C 225.606 86.374,226.553 86.028,229.167 84.754 C 237.682 80.601,243.911 74.029,247.060 65.875 C 247.805 63.945,248.507 61.752,248.502 61.365 C 248.501 61.244,248.604 60.794,248.730 60.365 C 250.330 54.930,249.451 44.729,246.909 39.225 C 246.776 38.936,246.667 38.653,246.667 38.596 C 246.667 38.435,245.352 35.807,244.993 35.250 C 244.815 34.975,244.618 34.637,244.554 34.500 C 244.490 34.362,244.175 33.875,243.853 33.417 C 243.532 32.958,243.095 32.327,242.882 32.014 C 242.223 31.047,240.381 28.893,238.759 27.193 C 237.556 25.933,235.386 24.207,233.804 23.252 C 232.144 22.250,230.935 21.588,229.250 20.759 C 228.150 20.217,227.101 19.701,226.918 19.611 C 226.735 19.520,226.360 19.390,226.085 19.321 C 225.809 19.252,225.358 19.116,225.083 19.018 C 224.408 18.778,222.507 18.268,221.083 17.944 C 220.442 17.799,218.824 17.602,217.489 17.507 C 216.154 17.413,214.729 17.304,214.323 17.265 C 213.916 17.227,213.058 17.261,212.417 17.341 M67.512 19.429 C 66.701 20.352,65.000 23.250,65.000 23.707 C 65.000 23.795,64.891 24.103,64.758 24.391 C 63.955 26.136,63.612 29.190,64.145 29.848 C 64.991 30.892,65.997 30.291,66.169 28.637 C 66.458 25.865,67.378 23.520,69.181 20.965 C 70.228 19.482,68.700 18.075,67.512 19.429 M219.957 20.757 C 222.300 21.301,224.281 21.841,225.167 22.176 C 225.671 22.368,226.299 22.604,226.562 22.702 C 226.825 22.800,227.463 23.103,227.979 23.376 C 230.341 24.626,231.434 25.227,231.643 25.392 C 231.767 25.490,232.008 25.648,232.177 25.743 C 235.002 27.331,238.410 30.800,241.555 35.290 C 241.891 35.770,242.167 36.198,242.167 36.241 C 242.167 36.284,242.391 36.699,242.665 37.164 C 246.536 43.729,247.824 55.802,245.298 61.833 C 245.202 62.063,245.063 62.475,244.990 62.750 C 244.236 65.568,242.018 69.788,239.882 72.469 C 236.131 77.178,233.483 79.298,227.917 82.054 C 225.877 83.064,223.879 83.789,221.844 84.258 C 221.334 84.375,220.617 84.551,220.250 84.648 C 219.883 84.746,219.133 84.829,218.583 84.833 C 218.033 84.837,217.068 84.914,216.437 85.006 C 213.889 85.374,209.287 85.040,206.250 84.266 C 204.377 83.789,203.417 83.498,202.891 83.249 C 202.603 83.112,202.295 83.000,202.208 83.000 C 201.748 83.000,196.671 80.234,194.917 79.028 C 190.838 76.222,186.390 70.770,184.423 66.167 C 183.379 63.721,183.322 63.562,182.759 61.500 C 181.992 58.692,181.846 57.877,181.655 55.312 C 180.628 41.552,187.710 29.382,200.250 23.357 C 203.087 21.994,203.755 21.771,207.917 20.794 C 210.072 20.289,217.835 20.265,219.957 20.757 M211.333 26.331 C 210.921 26.397,209.914 26.541,209.096 26.651 C 208.277 26.760,207.532 26.897,207.439 26.954 C 207.347 27.011,206.891 27.153,206.427 27.269 C 201.477 28.505,195.460 32.785,192.397 37.250 C 191.149 39.069,190.780 39.681,190.236 40.833 C 189.911 41.521,189.538 42.282,189.406 42.526 C 189.274 42.769,189.167 43.085,189.167 43.228 C 189.167 43.372,189.058 43.735,188.926 44.036 C 187.006 48.395,186.999 56.497,188.911 61.500 C 190.056 64.494,190.294 64.973,191.730 67.167 C 195.686 73.210,201.006 76.882,208.503 78.746 C 210.991 79.364,217.263 79.365,219.667 78.747 C 222.681 77.971,223.109 77.826,225.083 76.901 C 231.673 73.817,236.453 68.765,238.869 62.333 C 239.577 60.446,239.687 60.108,239.944 59.000 C 240.083 58.404,240.276 57.579,240.373 57.167 C 240.726 55.674,240.603 49.107,240.191 47.417 C 239.718 45.476,239.154 43.626,238.975 43.425 C 238.897 43.338,238.833 43.149,238.833 43.006 C 238.833 42.862,238.683 42.465,238.500 42.123 C 238.317 41.781,238.167 41.432,238.167 41.347 C 238.167 41.166,236.753 38.705,236.108 37.764 C 235.432 36.778,233.148 34.084,232.275 33.245 C 229.048 30.140,223.110 27.177,219.093 26.668 C 218.415 26.582,217.385 26.434,216.805 26.340 C 215.634 26.150,212.496 26.145,211.333 26.331 M30.333 28.340 C 25.820 29.071,23.020 30.455,20.300 33.302 C 19.186 34.469,17.667 36.684,17.667 37.143 C 17.667 37.236,17.580 37.523,17.473 37.781 C 16.504 40.131,16.210 44.230,16.829 46.752 C 17.729 50.417,19.578 52.642,23.917 55.279 C 24.479 55.621,29.285 58.000,29.413 58.000 C 29.479 58.000,29.769 58.101,30.058 58.225 C 30.347 58.349,31.033 58.618,31.583 58.824 C 32.724 59.250,34.093 59.784,34.583 59.994 C 39.351 62.035,41.806 63.555,43.183 65.316 C 46.565 69.641,45.200 76.618,40.541 78.814 C 40.106 79.020,39.616 79.260,39.453 79.348 C 38.873 79.663,36.387 80.040,34.366 80.120 C 28.176 80.366,22.746 76.792,19.748 70.500 C 19.003 68.935,18.865 68.614,18.491 67.583 C 18.291 67.033,18.024 66.337,17.898 66.036 C 17.771 65.735,17.666 65.322,17.664 65.119 C 17.659 64.321,15.894 63.731,15.387 64.357 C 15.187 64.605,15.340 69.446,15.663 73.083 C 15.761 74.183,15.912 76.715,15.999 78.710 C 16.183 82.941,16.202 83.000,17.339 83.000 C 18.197 83.000,18.249 82.968,19.069 81.916 C 19.743 81.054,21.103 80.702,22.415 81.052 C 22.996 81.207,23.594 81.333,23.745 81.333 C 23.895 81.333,24.333 81.470,24.717 81.637 C 26.157 82.263,27.225 82.643,29.333 83.281 C 32.316 84.184,39.614 83.868,42.583 82.708 C 50.257 79.709,53.895 74.394,53.620 66.583 C 53.387 59.942,49.942 55.994,41.167 52.314 C 40.296 51.949,39.433 51.581,39.250 51.496 C 38.908 51.338,38.462 51.180,36.000 50.341 C 29.687 48.190,25.965 45.350,24.912 41.880 C 23.873 38.455,25.696 34.542,29.083 32.925 C 31.103 31.960,31.451 31.833,32.077 31.833 C 32.412 31.833,33.216 31.751,33.864 31.651 C 38.317 30.960,42.764 33.029,45.500 37.065 C 46.460 38.481,47.433 40.689,48.079 42.917 C 48.624 44.797,48.755 44.925,50.019 44.804 L 50.583 44.750 50.632 42.583 C 50.659 41.392,50.565 38.691,50.424 36.581 C 50.282 34.472,50.166 31.847,50.164 30.748 C 50.161 27.967,50.175 28.000,48.997 28.000 C 48.099 28.000,48.021 28.031,47.857 28.458 C 47.155 30.296,46.139 30.335,40.833 28.728 C 38.472 28.013,33.492 27.829,30.333 28.340 M369.315 28.074 C 369.274 28.115,368.418 28.231,367.412 28.333 C 363.845 28.694,361.047 29.937,357.167 32.886 C 356.571 33.339,355.497 34.300,354.780 35.021 C 352.930 36.884,353.003 36.972,352.983 32.875 C 352.961 28.287,353.085 28.596,351.243 28.529 C 350.350 28.497,349.248 28.577,348.500 28.728 C 347.000 29.031,345.477 29.295,341.167 29.995 C 340.479 30.107,339.451 30.304,338.882 30.433 C 338.314 30.561,337.667 30.667,337.444 30.667 C 336.778 30.667,336.649 31.004,336.702 32.609 L 336.750 34.083 339.000 34.177 C 341.880 34.298,342.615 34.578,343.193 35.776 L 343.583 36.583 343.583 56.417 C 343.583 72.319,343.540 76.372,343.366 76.865 C 342.790 78.488,341.824 78.965,338.675 79.180 C 335.999 79.362,336.141 79.252,336.201 81.099 L 336.250 82.583 348.298 82.583 C 361.990 82.583,360.660 82.757,360.664 80.970 C 360.666 79.978,360.535 79.583,360.113 79.314 C 360.097 79.304,359.071 79.244,357.833 79.180 C 355.813 79.077,355.515 79.022,354.914 78.639 C 353.233 77.567,353.333 78.826,353.333 58.788 L 353.333 41.468 353.705 40.942 C 355.115 38.950,358.418 35.828,359.979 35.014 C 361.266 34.342,361.346 34.309,362.568 33.952 C 364.211 33.471,368.426 33.434,369.917 33.887 C 373.177 34.878,375.035 36.979,376.356 41.167 L 376.750 42.417 376.750 59.500 L 376.750 76.583 376.364 77.367 C 375.714 78.686,374.899 79.039,372.234 79.155 C 369.506 79.274,369.500 79.278,369.500 81.015 C 369.500 82.136,369.546 82.346,369.822 82.494 C 370.414 82.811,393.418 82.725,393.738 82.405 C 394.241 81.902,393.986 79.343,393.432 79.328 C 389.976 79.236,387.979 78.798,387.227 77.967 C 386.399 77.053,386.424 77.577,386.325 58.917 C 386.225 40.274,386.242 40.662,385.404 37.583 C 383.699 31.320,378.795 28.003,371.236 28.001 C 370.220 28.000,369.356 28.033,369.315 28.074 M216.500 29.336 C 220.719 29.818,222.461 30.380,226.000 32.401 C 226.412 32.636,226.864 32.886,227.003 32.956 C 230.034 34.478,234.287 39.583,235.857 43.583 C 236.890 46.216,237.055 46.801,237.519 49.500 C 237.791 51.080,237.621 56.103,237.245 57.583 C 235.120 65.954,230.300 71.560,222.417 74.832 C 218.499 76.458,210.096 76.747,207.351 75.350 C 207.204 75.275,206.825 75.165,206.510 75.105 C 202.173 74.280,195.395 68.440,192.945 63.417 C 192.642 62.795,192.472 62.416,191.771 60.786 C 191.622 60.439,191.500 60.048,191.500 59.917 C 191.500 59.786,191.383 59.335,191.241 58.915 C 190.080 55.496,190.145 49.987,191.395 45.917 C 193.570 38.835,199.214 32.865,205.917 30.560 C 208.117 29.803,208.684 29.662,210.186 29.495 C 211.046 29.399,212.200 29.257,212.750 29.179 C 213.786 29.032,213.875 29.035,216.500 29.336 M253.071 29.389 C 253.024 29.511,253.008 30.241,253.034 31.011 L 253.083 32.410 253.917 32.533 C 257.061 32.996,257.614 33.217,258.562 34.389 C 259.147 35.112,259.834 36.512,259.833 36.980 C 259.832 37.128,259.941 37.587,260.075 38.000 C 260.209 38.412,260.480 39.313,260.678 40.000 C 260.876 40.688,261.114 41.438,261.206 41.667 C 261.299 41.896,261.473 42.458,261.595 42.917 C 261.716 43.375,261.929 44.125,262.069 44.583 C 262.209 45.042,262.479 45.942,262.670 46.583 C 262.860 47.225,263.121 48.087,263.250 48.500 C 263.379 48.913,263.640 49.775,263.830 50.417 C 264.229 51.759,264.486 52.612,264.987 54.250 C 265.183 54.892,265.445 55.754,265.570 56.167 C 265.695 56.579,265.957 57.442,266.153 58.083 C 266.743 60.015,267.000 60.875,267.247 61.750 C 267.591 62.972,267.954 64.181,268.147 64.750 C 268.319 65.256,268.791 66.823,269.277 68.500 C 269.423 69.004,269.638 69.717,269.754 70.083 C 269.870 70.450,270.134 71.313,270.340 72.000 C 270.873 73.776,271.339 75.309,271.582 76.083 C 271.697 76.450,271.910 77.162,272.056 77.667 C 273.030 81.025,273.496 82.378,273.735 82.539 C 273.973 82.700,279.192 82.698,279.445 82.538 C 279.638 82.415,279.943 81.569,280.661 79.167 C 280.867 78.479,281.133 77.617,281.253 77.250 C 281.373 76.883,281.636 76.021,281.838 75.333 C 282.039 74.646,282.300 73.783,282.418 73.417 C 282.535 73.050,282.762 72.300,282.920 71.750 C 283.079 71.200,283.304 70.450,283.420 70.083 C 283.537 69.717,283.800 68.854,284.007 68.167 C 284.539 66.391,285.006 64.857,285.248 64.083 C 285.363 63.717,285.587 62.967,285.746 62.417 C 285.905 61.867,286.131 61.117,286.249 60.750 C 286.367 60.383,286.630 59.521,286.834 58.833 C 287.731 55.811,287.859 55.389,288.025 54.917 C 288.121 54.642,288.260 54.154,288.333 53.833 C 288.407 53.512,288.547 53.025,288.644 52.750 C 288.741 52.475,288.983 51.688,289.180 51.000 C 289.378 50.313,289.639 49.487,289.761 49.167 C 289.883 48.846,290.032 48.321,290.094 48.000 C 290.155 47.679,290.263 47.342,290.333 47.250 C 290.404 47.158,290.515 46.821,290.581 46.500 C 290.780 45.536,291.296 44.096,291.464 44.040 C 291.633 43.983,292.333 45.481,292.333 45.900 C 292.333 46.041,292.436 46.402,292.562 46.703 C 292.688 47.004,292.961 47.813,293.169 48.500 C 293.376 49.188,293.639 50.012,293.753 50.333 C 293.867 50.654,294.127 51.479,294.331 52.167 C 294.535 52.854,294.806 53.653,294.934 53.942 C 295.062 54.231,295.167 54.584,295.167 54.728 C 295.167 54.871,295.270 55.235,295.396 55.536 C 295.522 55.837,295.794 56.646,296.002 57.333 C 296.209 58.021,296.472 58.846,296.586 59.167 C 296.700 59.487,296.959 60.313,297.161 61.000 C 297.362 61.688,297.625 62.512,297.744 62.833 C 297.863 63.154,298.127 63.979,298.331 64.667 C 298.535 65.354,298.806 66.153,298.934 66.442 C 299.062 66.731,299.167 67.047,299.167 67.146 C 299.167 67.331,300.203 70.651,300.578 71.667 C 300.697 71.987,300.959 72.813,301.161 73.500 C 301.362 74.188,301.625 75.012,301.744 75.333 C 301.863 75.654,302.126 76.479,302.328 77.167 C 302.531 77.854,302.759 78.567,302.836 78.750 C 302.912 78.933,303.177 79.758,303.425 80.583 C 304.057 82.692,304.012 82.667,307.060 82.664 C 310.030 82.662,310.304 82.610,310.435 82.022 C 310.489 81.781,310.681 81.096,310.862 80.500 C 311.042 79.904,311.297 79.042,311.427 78.583 C 311.557 78.125,311.819 77.225,312.010 76.583 C 312.201 75.942,312.474 75.004,312.617 74.500 C 312.759 73.996,312.968 73.283,313.081 72.917 C 313.314 72.161,313.902 70.160,314.258 68.917 C 314.389 68.458,314.652 67.558,314.843 66.917 C 315.034 66.275,315.308 65.337,315.452 64.833 C 315.851 63.436,316.114 62.529,316.492 61.250 C 316.682 60.608,316.944 59.708,317.075 59.250 C 317.431 58.006,318.020 56.005,318.252 55.250 C 318.365 54.883,318.574 54.171,318.717 53.667 C 318.860 53.163,319.133 52.225,319.323 51.583 C 319.514 50.942,319.777 50.042,319.907 49.583 C 320.037 49.125,320.299 48.225,320.490 47.583 C 320.894 46.226,321.181 45.235,321.674 43.500 C 321.870 42.813,322.126 41.950,322.243 41.583 C 322.622 40.404,322.985 39.111,323.250 38.000 C 324.086 34.501,325.435 33.216,328.776 32.740 C 329.862 32.585,330.844 32.383,330.958 32.292 C 331.209 32.092,331.241 30.217,331.004 29.594 L 330.842 29.167 321.546 29.169 C 316.433 29.171,312.153 29.233,312.035 29.308 C 311.879 29.407,311.833 29.854,311.868 30.931 L 311.917 32.417 314.500 32.517 C 319.092 32.695,319.877 33.541,318.813 37.167 C 318.665 37.671,318.456 38.421,318.349 38.833 C 317.952 40.362,317.677 41.443,317.440 42.417 C 317.306 42.967,317.034 44.017,316.836 44.750 C 316.638 45.483,316.368 46.560,316.237 47.143 C 316.105 47.726,315.959 48.264,315.913 48.340 C 315.866 48.416,315.762 48.801,315.682 49.197 C 315.603 49.593,315.222 51.117,314.836 52.583 C 314.177 55.088,314.016 55.725,313.435 58.125 C 313.307 58.652,313.151 59.209,313.088 59.363 C 313.025 59.517,312.873 60.079,312.749 60.613 C 312.626 61.147,312.401 62.071,312.250 62.667 C 312.099 63.262,311.878 64.167,311.760 64.677 C 311.641 65.187,311.466 65.862,311.370 66.177 C 310.993 67.414,310.500 69.339,310.500 69.574 C 310.500 70.023,309.800 71.701,309.673 71.557 C 309.604 71.480,309.378 70.854,309.171 70.167 C 308.964 69.479,308.699 68.617,308.582 68.250 C 308.464 67.883,308.200 67.021,307.994 66.333 C 307.788 65.646,307.524 64.783,307.406 64.417 C 307.289 64.050,307.028 63.188,306.827 62.500 C 306.626 61.813,306.385 61.063,306.291 60.833 C 306.197 60.604,306.063 60.154,305.993 59.833 C 305.923 59.512,305.786 59.025,305.689 58.750 C 305.592 58.475,305.351 57.688,305.153 57.000 C 304.955 56.313,304.694 55.487,304.572 55.167 C 304.451 54.846,304.301 54.321,304.240 54.000 C 304.178 53.679,304.070 53.342,304.000 53.250 C 303.930 53.158,303.822 52.821,303.760 52.500 C 303.699 52.179,303.549 51.654,303.428 51.333 C 303.094 50.454,302.495 48.444,302.498 48.214 C 302.499 48.103,302.397 47.765,302.270 47.464 C 302.144 47.163,301.911 46.467,301.752 45.917 C 301.593 45.367,301.331 44.504,301.170 44.000 C 301.010 43.496,300.747 42.633,300.588 42.083 C 300.429 41.533,300.202 40.783,300.084 40.417 C 299.967 40.050,299.706 39.188,299.504 38.500 C 299.303 37.813,299.040 36.950,298.920 36.583 C 298.716 35.961,298.423 34.996,297.629 32.333 C 297.451 31.738,297.200 31.006,297.072 30.708 L 296.839 30.167 294.012 30.167 C 290.996 30.167,290.661 30.266,290.669 31.162 C 290.670 31.302,290.515 31.942,290.324 32.583 C 290.133 33.225,289.872 34.125,289.745 34.583 C 289.127 36.815,288.798 37.988,288.580 38.750 C 288.448 39.208,288.185 40.146,287.996 40.833 C 287.807 41.521,287.542 42.458,287.407 42.917 C 287.271 43.375,286.901 44.688,286.583 45.833 C 286.266 46.979,285.899 48.292,285.769 48.750 C 285.047 51.283,284.799 52.164,284.595 52.917 C 284.354 53.806,284.068 54.825,283.498 56.833 C 283.303 57.521,283.039 58.458,282.912 58.917 C 282.293 61.148,281.965 62.322,281.746 63.083 C 281.615 63.542,281.352 64.479,281.163 65.167 C 280.974 65.854,280.710 66.792,280.576 67.250 C 280.442 67.708,280.183 68.597,280.000 69.226 C 279.817 69.854,279.667 70.508,279.667 70.678 C 279.667 71.098,279.013 71.454,278.815 71.142 C 278.736 71.018,278.671 70.761,278.669 70.570 C 278.668 70.379,278.513 69.704,278.325 69.070 C 277.871 67.534,277.588 66.519,277.167 64.917 C 276.489 62.333,276.326 61.743,276.081 60.978 C 275.945 60.553,275.833 60.097,275.833 59.964 C 275.833 59.831,275.681 59.204,275.496 58.570 C 275.033 56.989,274.752 55.982,274.339 54.417 C 274.145 53.683,273.877 52.690,273.743 52.208 C 273.219 50.324,273.012 49.554,272.833 48.833 C 272.731 48.421,272.499 47.558,272.317 46.917 C 272.135 46.275,271.918 45.437,271.834 45.053 C 271.750 44.670,271.561 43.958,271.414 43.470 C 271.267 42.982,271.033 42.171,270.894 41.667 C 270.756 41.162,270.542 40.412,270.420 40.000 C 270.298 39.587,270.147 38.987,270.086 38.667 C 270.025 38.346,269.876 37.783,269.756 37.417 C 268.469 33.484,269.091 32.500,272.864 32.500 C 273.862 32.500,274.506 32.427,274.633 32.300 C 274.874 32.059,274.900 30.198,274.671 29.594 L 274.508 29.167 263.832 29.167 C 255.088 29.167,253.141 29.207,253.071 29.389 M74.967 30.875 C 74.822 30.990,74.653 31.383,74.590 31.750 C 74.422 32.736,73.974 33.982,73.478 34.850 C 72.685 36.232,72.674 36.748,73.423 37.239 C 74.601 38.011,76.671 34.836,76.860 31.967 C 76.930 30.898,75.778 30.233,74.967 30.875 M151.231 31.677 C 154.917 32.107,158.419 33.859,161.125 36.626 L 161.833 37.350 161.833 54.984 L 161.833 72.618 160.838 73.552 C 159.323 74.974,155.682 77.541,154.417 78.078 C 151.004 79.527,146.619 79.522,143.667 78.066 C 142.095 77.291,139.344 74.838,139.081 73.977 C 139.015 73.761,138.870 73.471,138.759 73.333 C 138.589 73.122,138.001 71.799,137.094 69.583 C 135.422 65.502,134.801 53.208,135.928 46.500 C 136.644 42.235,136.935 41.266,138.375 38.343 C 139.745 35.562,143.297 32.345,145.008 32.335 C 145.150 32.334,145.345 32.255,145.441 32.159 C 145.538 32.062,146.357 31.908,147.262 31.815 C 148.168 31.723,148.942 31.614,148.982 31.573 C 149.094 31.462,149.571 31.484,151.231 31.677 M227.851 51.817 C 227.356 52.279,227.333 52.358,227.333 53.627 C 227.333 57.911,223.699 63.111,219.500 64.836 C 219.271 64.930,218.933 65.077,218.750 65.162 C 218.132 65.449,216.277 65.842,215.055 65.946 C 212.808 66.136,211.942 67.223,213.054 68.458 C 213.468 68.919,216.294 69.007,217.536 68.599 C 217.929 68.469,218.510 68.310,218.828 68.244 C 219.146 68.178,219.521 68.064,219.661 67.991 C 219.802 67.917,220.292 67.690,220.750 67.485 C 224.277 65.912,227.611 62.550,229.002 59.167 C 229.096 58.938,229.246 58.600,229.335 58.417 C 229.893 57.268,230.215 55.661,230.232 53.944 L 230.250 52.138 229.750 51.736 C 229.081 51.199,228.485 51.224,227.851 51.817 " stroke="none" fill="#080808" fill-rule="evenodd"></path><path id="path1" d="M0.000 46.083 L 0.000 92.167 200.000 92.167 L 400.000 92.167 400.000 46.083 L 400.000 0.000 200.000 0.000 L 0.000 0.000 0.000 46.083 M170.862 3.776 C 171.155 4.041,171.167 5.381,171.173 39.734 C 171.177 68.824,171.219 75.586,171.400 76.333 C 171.952 78.620,172.707 79.110,175.917 79.270 C 177.108 79.330,178.177 79.453,178.292 79.543 C 178.568 79.761,178.575 82.191,178.300 82.467 C 178.005 82.762,163.273 82.754,163.052 82.458 C 162.838 82.172,162.524 80.501,162.393 78.947 C 162.260 77.379,162.175 77.312,161.192 78.007 C 158.634 79.813,157.946 80.243,155.647 81.473 C 153.446 82.650,150.511 83.667,149.311 83.667 C 148.963 83.667,147.918 83.753,146.988 83.859 C 144.091 84.188,140.004 83.705,137.417 82.726 C 134.623 81.670,130.936 78.790,129.765 76.750 C 129.502 76.292,129.191 75.804,129.073 75.667 C 127.816 74.199,126.209 69.701,125.500 65.667 C 124.759 61.443,124.559 54.145,125.089 50.617 C 125.790 45.952,126.741 41.921,127.340 41.083 C 127.406 40.992,127.515 40.734,127.584 40.512 C 127.974 39.243,130.511 35.495,132.000 33.988 C 133.971 31.993,138.252 29.509,140.500 29.055 C 140.729 29.009,141.254 28.867,141.667 28.739 C 147.043 27.078,154.732 28.124,159.722 31.197 C 162.045 32.627,161.857 33.478,161.798 21.750 C 161.733 8.937,161.982 9.536,156.704 9.510 C 154.322 9.498,154.333 9.508,154.333 7.584 C 154.333 6.262,154.487 6.097,155.950 5.849 C 156.573 5.744,157.646 5.551,158.333 5.420 C 159.021 5.290,160.446 5.026,161.500 4.833 C 163.308 4.503,164.170 4.342,167.167 3.774 C 168.970 3.432,170.483 3.433,170.862 3.776 M104.070 11.934 C 104.305 12.025,104.333 12.929,104.333 20.429 C 104.333 28.556,104.344 28.827,104.656 28.994 C 104.860 29.104,107.111 29.167,110.819 29.167 L 116.660 29.167 116.754 29.542 C 116.806 29.748,116.826 30.554,116.799 31.333 L 116.750 32.750 110.702 32.833 C 105.570 32.904,104.630 32.955,104.496 33.167 C 104.135 33.738,104.296 71.600,104.667 73.376 C 105.881 79.193,110.023 80.489,115.872 76.883 C 116.839 76.287,117.081 76.366,117.571 77.437 C 118.307 79.044,118.100 79.297,114.167 81.597 C 110.811 83.559,110.188 83.726,106.167 83.735 C 99.560 83.750,95.897 80.790,95.153 74.833 C 95.078 74.237,95.013 64.617,95.009 53.454 L 95.000 33.158 94.572 32.996 C 94.337 32.906,92.535 32.833,90.568 32.833 L 86.992 32.833 86.829 32.406 C 86.177 30.690,86.786 29.307,88.290 29.091 C 93.281 28.374,98.040 23.672,99.685 17.833 C 99.775 17.512,99.917 17.100,99.999 16.917 C 100.226 16.415,100.687 14.546,100.864 13.417 C 101.089 11.982,102.497 11.331,104.070 11.934 M72.156 13.937 C 75.384 14.733,77.849 17.053,79.483 20.833 C 80.184 22.456,80.291 22.734,80.569 23.667 C 82.457 30.000,80.985 36.944,76.822 41.333 C 75.214 43.029,74.723 43.737,74.495 44.687 C 74.074 46.443,74.707 60.755,75.652 70.833 C 76.380 78.600,76.477 81.820,76.017 82.969 C 75.619 83.965,74.590 85.641,74.184 85.956 C 72.114 87.561,69.052 87.826,66.933 86.584 C 64.045 84.891,63.315 81.994,64.080 75.255 C 64.216 74.061,64.399 72.333,64.488 71.417 C 64.805 68.135,65.017 66.050,65.248 63.917 C 65.377 62.725,65.567 60.475,65.670 58.917 C 66.589 45.084,66.524 43.983,64.679 42.068 C 63.169 40.502,61.002 37.389,60.999 36.783 C 60.998 36.673,60.893 36.382,60.765 36.136 C 60.636 35.890,60.480 35.440,60.417 35.136 C 60.354 34.832,60.183 34.246,60.037 33.833 C 59.693 32.864,59.650 26.467,59.980 25.417 C 60.095 25.050,60.291 24.375,60.414 23.917 C 60.961 21.889,62.219 19.218,63.231 17.939 C 65.904 14.556,69.015 13.162,72.156 13.937 M69.500 15.978 C 67.860 16.323,65.681 18.159,64.520 20.171 C 63.791 21.436,62.667 24.149,62.667 24.645 C 62.667 24.817,62.549 25.286,62.406 25.687 C 62.005 26.811,62.006 31.516,62.408 33.167 C 63.054 35.816,63.907 37.478,65.537 39.260 C 68.653 42.667,68.973 43.602,68.687 48.475 C 68.581 50.276,68.421 53.463,68.331 55.556 C 68.242 57.650,68.134 59.418,68.092 59.486 C 68.050 59.554,67.936 61.028,67.838 62.763 C 67.740 64.497,67.587 66.367,67.497 66.917 C 67.407 67.467,67.261 68.742,67.173 69.750 C 67.084 70.758,66.936 72.296,66.842 73.167 C 66.201 79.131,66.094 81.349,66.406 82.227 C 68.044 86.839,73.986 85.574,74.004 80.610 C 74.008 79.447,73.590 73.056,73.321 70.167 C 72.488 61.222,71.869 46.470,72.244 44.487 C 72.559 42.816,73.293 41.587,75.069 39.758 C 76.718 38.060,77.642 36.579,78.296 34.583 C 81.166 25.833,75.873 14.636,69.500 15.978 M217.489 17.507 C 218.824 17.602,220.442 17.799,221.083 17.944 C 222.507 18.268,224.408 18.778,225.083 19.018 C 225.358 19.116,225.809 19.252,226.085 19.321 C 226.360 19.390,226.735 19.520,226.918 19.611 C 227.101 19.701,228.150 20.217,229.250 20.759 C 230.935 21.588,232.144 22.250,233.804 23.252 C 235.386 24.207,237.556 25.933,238.759 27.193 C 240.381 28.893,242.223 31.047,242.882 32.014 C 243.095 32.327,243.532 32.958,243.853 33.417 C 244.175 33.875,244.490 34.362,244.554 34.500 C 244.618 34.637,244.815 34.975,244.993 35.250 C 245.352 35.807,246.667 38.435,246.667 38.596 C 246.667 38.653,246.776 38.936,246.909 39.225 C 249.451 44.729,250.330 54.930,248.730 60.365 C 248.604 60.794,248.501 61.244,248.502 61.365 C 248.505 61.603,247.933 63.539,247.564 64.542 C 243.929 74.410,237.523 81.074,227.250 85.675 C 224.284 87.003,218.226 88.166,214.250 88.171 C 212.752 88.172,207.786 87.709,206.917 87.486 C 206.550 87.392,205.838 87.211,205.333 87.084 C 202.463 86.360,200.750 85.717,198.333 84.455 C 192.249 81.277,189.367 78.865,185.443 73.667 C 184.924 72.979,184.442 72.342,184.373 72.250 C 184.053 71.829,182.363 68.830,182.024 68.083 C 181.816 67.625,181.575 67.120,181.489 66.960 C 181.007 66.067,179.761 62.117,179.267 59.917 C 178.165 55.006,178.381 47.794,179.757 43.583 C 179.877 43.217,180.026 42.654,180.090 42.333 C 180.153 42.012,180.264 41.675,180.335 41.583 C 180.407 41.492,180.544 41.154,180.639 40.833 C 181.432 38.174,183.084 35.001,185.154 32.167 C 189.003 26.896,192.520 23.950,198.750 20.781 C 201.194 19.538,202.029 19.246,206.667 18.012 C 207.079 17.902,208.279 17.739,209.333 17.650 C 210.387 17.560,211.775 17.421,212.417 17.341 C 213.058 17.261,213.916 17.227,214.323 17.265 C 214.729 17.304,216.154 17.413,217.489 17.507 M69.130 19.093 C 69.601 19.423,69.626 20.334,69.181 20.965 C 67.378 23.520,66.458 25.865,66.169 28.637 C 65.997 30.291,64.991 30.892,64.145 29.848 C 63.612 29.190,63.955 26.136,64.758 24.391 C 64.891 24.103,65.000 23.795,65.000 23.707 C 65.000 23.507,65.969 21.640,66.551 20.717 C 67.659 18.963,68.336 18.537,69.130 19.093 M210.250 20.480 C 208.857 20.590,208.336 20.683,206.333 21.174 C 203.562 21.854,202.841 22.113,200.250 23.357 C 187.710 29.382,180.628 41.552,181.655 55.312 C 181.846 57.877,181.992 58.692,182.759 61.500 C 183.322 63.562,183.379 63.721,184.423 66.167 C 186.390 70.770,190.838 76.222,194.917 79.028 C 196.671 80.234,201.748 83.000,202.208 83.000 C 202.295 83.000,202.603 83.112,202.891 83.249 C 205.731 84.595,212.873 85.521,216.437 85.006 C 217.068 84.914,218.033 84.837,218.583 84.833 C 219.133 84.829,219.883 84.746,220.250 84.648 C 220.617 84.551,221.334 84.375,221.844 84.258 C 223.879 83.789,225.877 83.064,227.917 82.054 C 233.483 79.298,236.131 77.178,239.882 72.469 C 242.018 69.788,244.236 65.568,244.990 62.750 C 245.063 62.475,245.202 62.063,245.298 61.833 C 247.824 55.802,246.536 43.729,242.665 37.164 C 242.391 36.699,242.167 36.284,242.167 36.241 C 242.167 36.198,241.891 35.770,241.555 35.290 C 238.410 30.800,235.002 27.331,232.177 25.743 C 232.008 25.648,231.767 25.490,231.643 25.392 C 231.434 25.227,230.341 24.626,227.979 23.376 C 227.463 23.103,226.825 22.800,226.562 22.702 C 226.299 22.604,225.671 22.368,225.167 22.176 C 224.281 21.841,222.300 21.301,219.957 20.757 C 218.667 20.458,212.695 20.287,210.250 20.480 M216.805 26.340 C 217.385 26.434,218.415 26.582,219.093 26.668 C 221.918 27.026,225.310 28.396,228.823 30.599 C 231.209 32.095,232.264 33.071,234.955 36.272 C 236.060 37.587,238.167 40.915,238.167 41.347 C 238.167 41.432,238.317 41.781,238.500 42.123 C 238.683 42.465,238.833 42.862,238.833 43.006 C 238.833 43.149,238.897 43.338,238.975 43.425 C 239.154 43.626,239.718 45.476,240.191 47.417 C 240.603 49.107,240.726 55.674,240.373 57.167 C 240.276 57.579,240.083 58.404,239.944 59.000 C 239.687 60.108,239.577 60.446,238.869 62.333 C 236.453 68.765,231.673 73.817,225.083 76.901 C 223.109 77.826,222.681 77.971,219.667 78.747 C 217.263 79.365,210.991 79.364,208.503 78.746 C 201.006 76.882,195.686 73.210,191.730 67.167 C 190.294 64.973,190.056 64.494,188.911 61.500 C 186.999 56.497,187.006 48.395,188.926 44.036 C 189.058 43.735,189.167 43.372,189.167 43.228 C 189.167 43.085,189.274 42.769,189.406 42.526 C 189.538 42.282,189.911 41.521,190.236 40.833 C 190.780 39.681,191.149 39.069,192.397 37.250 C 195.460 32.785,201.477 28.505,206.427 27.269 C 206.891 27.153,207.347 27.011,207.439 26.954 C 207.532 26.897,208.277 26.760,209.096 26.651 C 209.914 26.541,210.921 26.397,211.333 26.331 C 212.496 26.145,215.634 26.150,216.805 26.340 M38.083 28.252 C 39.183 28.389,40.421 28.603,40.833 28.728 C 46.139 30.335,47.155 30.296,47.857 28.458 C 48.021 28.031,48.099 28.000,48.997 28.000 C 50.175 28.000,50.161 27.967,50.164 30.748 C 50.166 31.847,50.282 34.472,50.424 36.581 C 50.565 38.691,50.659 41.392,50.632 42.583 L 50.583 44.750 50.019 44.804 C 48.755 44.925,48.624 44.797,48.079 42.917 C 46.620 37.884,44.235 34.534,40.892 32.822 C 38.985 31.845,35.912 31.333,33.864 31.651 C 33.216 31.751,32.412 31.833,32.077 31.833 C 31.451 31.833,31.103 31.960,29.083 32.925 C 25.696 34.542,23.873 38.455,24.912 41.880 C 25.965 45.350,29.687 48.190,36.000 50.341 C 38.462 51.180,38.908 51.338,39.250 51.496 C 39.433 51.581,40.296 51.949,41.167 52.314 C 49.942 55.994,53.387 59.942,53.620 66.583 C 53.895 74.394,50.257 79.709,42.583 82.708 C 39.614 83.868,32.316 84.184,29.333 83.281 C 27.225 82.643,26.157 82.263,24.717 81.637 C 24.333 81.470,23.895 81.333,23.745 81.333 C 23.594 81.333,22.996 81.207,22.415 81.052 C 21.103 80.702,19.743 81.054,19.069 81.916 C 18.249 82.968,18.197 83.000,17.339 83.000 C 16.202 83.000,16.183 82.941,15.999 78.710 C 15.912 76.715,15.761 74.183,15.663 73.083 C 15.340 69.446,15.187 64.605,15.387 64.357 C 15.894 63.731,17.659 64.321,17.664 65.119 C 17.666 65.322,17.771 65.735,17.898 66.036 C 18.024 66.337,18.291 67.033,18.491 67.583 C 18.865 68.614,19.003 68.935,19.748 70.500 C 22.136 75.511,26.106 78.824,31.033 79.917 C 33.046 80.364,38.225 80.014,39.453 79.348 C 39.616 79.260,40.106 79.020,40.541 78.814 C 45.200 76.618,46.565 69.641,43.183 65.316 C 41.806 63.555,39.351 62.035,34.583 59.994 C 34.093 59.784,32.724 59.250,31.583 58.824 C 31.033 58.618,30.347 58.349,30.058 58.225 C 29.769 58.101,29.479 58.000,29.413 58.000 C 29.285 58.000,24.479 55.621,23.917 55.279 C 19.578 52.642,17.729 50.417,16.829 46.752 C 16.210 44.230,16.504 40.131,17.473 37.781 C 17.580 37.523,17.667 37.236,17.667 37.143 C 17.667 36.296,20.622 32.668,22.320 31.431 C 26.123 28.661,31.944 27.487,38.083 28.252 M374.667 28.254 C 380.314 29.154,383.976 32.335,385.404 37.583 C 386.242 40.662,386.225 40.274,386.325 58.917 C 386.424 77.577,386.399 77.053,387.227 77.967 C 387.979 78.798,389.976 79.236,393.432 79.328 C 393.986 79.343,394.241 81.902,393.738 82.405 C 393.418 82.725,370.414 82.811,369.822 82.494 C 369.546 82.346,369.500 82.136,369.500 81.015 C 369.500 79.278,369.506 79.274,372.234 79.155 C 374.899 79.039,375.714 78.686,376.364 77.367 L 376.750 76.583 376.750 59.500 L 376.750 42.417 376.356 41.167 C 375.035 36.979,373.177 34.878,369.917 33.887 C 368.426 33.434,364.211 33.471,362.568 33.952 C 361.346 34.309,361.266 34.342,359.979 35.014 C 358.418 35.828,355.115 38.950,353.705 40.942 L 353.333 41.468 353.333 58.788 C 353.333 78.826,353.233 77.567,354.914 78.639 C 355.515 79.022,355.813 79.077,357.833 79.180 C 359.071 79.244,360.097 79.304,360.113 79.314 C 360.535 79.583,360.666 79.978,360.664 80.970 C 360.660 82.757,361.990 82.583,348.298 82.583 L 336.250 82.583 336.201 81.099 C 336.141 79.252,335.999 79.362,338.675 79.180 C 341.824 78.965,342.790 78.488,343.366 76.865 C 343.540 76.372,343.583 72.319,343.583 56.417 L 343.583 36.583 343.193 35.776 C 342.615 34.578,341.880 34.298,339.000 34.177 L 336.750 34.083 336.702 32.609 C 336.649 31.004,336.778 30.667,337.444 30.667 C 337.667 30.667,338.314 30.561,338.882 30.433 C 339.451 30.304,340.479 30.107,341.167 29.995 C 345.477 29.295,347.000 29.031,348.500 28.728 C 349.248 28.577,350.350 28.497,351.243 28.529 C 353.085 28.596,352.961 28.287,352.983 32.875 C 353.003 36.972,352.930 36.884,354.780 35.021 C 355.497 34.300,356.571 33.339,357.167 32.886 C 361.047 29.937,363.845 28.694,367.412 28.333 C 368.418 28.231,369.274 28.115,369.315 28.074 C 369.491 27.898,373.220 28.023,374.667 28.254 M212.750 29.179 C 212.200 29.257,211.046 29.399,210.186 29.495 C 208.684 29.662,208.117 29.803,205.917 30.560 C 199.214 32.865,193.570 38.835,191.395 45.917 C 190.145 49.987,190.080 55.496,191.241 58.915 C 191.383 59.335,191.500 59.786,191.500 59.917 C 191.500 60.048,191.622 60.439,191.771 60.786 C 192.472 62.416,192.642 62.795,192.945 63.417 C 195.395 68.440,202.173 74.280,206.510 75.105 C 206.825 75.165,207.204 75.275,207.351 75.350 C 210.096 76.747,218.499 76.458,222.417 74.832 C 230.300 71.560,235.120 65.954,237.245 57.583 C 237.621 56.103,237.791 51.080,237.519 49.500 C 237.055 46.801,236.890 46.216,235.857 43.583 C 234.287 39.583,230.034 34.478,227.003 32.956 C 226.864 32.886,226.412 32.636,226.000 32.401 C 222.461 30.380,220.719 29.818,216.500 29.336 C 213.875 29.035,213.786 29.032,212.750 29.179 M274.671 29.594 C 274.900 30.198,274.874 32.059,274.633 32.300 C 274.506 32.427,273.862 32.500,272.864 32.500 C 269.091 32.500,268.469 33.484,269.756 37.417 C 269.876 37.783,270.025 38.346,270.086 38.667 C 270.147 38.987,270.298 39.587,270.420 40.000 C 270.542 40.412,270.756 41.162,270.894 41.667 C 271.033 42.171,271.267 42.982,271.414 43.470 C 271.561 43.958,271.750 44.670,271.834 45.053 C 271.918 45.437,272.135 46.275,272.317 46.917 C 272.499 47.558,272.731 48.421,272.833 48.833 C 273.012 49.554,273.219 50.324,273.743 52.208 C 273.877 52.690,274.145 53.683,274.339 54.417 C 274.752 55.982,275.033 56.989,275.496 58.570 C 275.681 59.204,275.833 59.831,275.833 59.964 C 275.833 60.097,275.945 60.553,276.081 60.978 C 276.326 61.743,276.489 62.333,277.167 64.917 C 277.588 66.519,277.871 67.534,278.325 69.070 C 278.513 69.704,278.668 70.379,278.669 70.570 C 278.671 70.761,278.736 71.018,278.815 71.142 C 279.013 71.454,279.667 71.098,279.667 70.678 C 279.667 70.508,279.817 69.854,280.000 69.226 C 280.183 68.597,280.442 67.708,280.576 67.250 C 280.710 66.792,280.974 65.854,281.163 65.167 C 281.352 64.479,281.615 63.542,281.746 63.083 C 281.965 62.322,282.293 61.148,282.912 58.917 C 283.039 58.458,283.303 57.521,283.498 56.833 C 284.068 54.825,284.354 53.806,284.595 52.917 C 284.799 52.164,285.047 51.283,285.769 48.750 C 285.899 48.292,286.266 46.979,286.583 45.833 C 286.901 44.688,287.271 43.375,287.407 42.917 C 287.542 42.458,287.807 41.521,287.996 40.833 C 288.185 40.146,288.448 39.208,288.580 38.750 C 288.798 37.988,289.127 36.815,289.745 34.583 C 289.872 34.125,290.133 33.225,290.324 32.583 C 290.515 31.942,290.670 31.302,290.669 31.162 C 290.661 30.266,290.996 30.167,294.012 30.167 L 296.839 30.167 297.072 30.708 C 297.200 31.006,297.451 31.738,297.629 32.333 C 298.423 34.996,298.716 35.961,298.920 36.583 C 299.040 36.950,299.303 37.813,299.504 38.500 C 299.706 39.188,299.967 40.050,300.084 40.417 C 300.202 40.783,300.429 41.533,300.588 42.083 C 300.747 42.633,301.010 43.496,301.170 44.000 C 301.331 44.504,301.593 45.367,301.752 45.917 C 301.911 46.467,302.144 47.163,302.270 47.464 C 302.397 47.765,302.499 48.103,302.498 48.214 C 302.495 48.444,303.094 50.454,303.428 51.333 C 303.549 51.654,303.699 52.179,303.760 52.500 C 303.822 52.821,303.930 53.158,304.000 53.250 C 304.070 53.342,304.178 53.679,304.240 54.000 C 304.301 54.321,304.451 54.846,304.572 55.167 C 304.694 55.487,304.955 56.313,305.153 57.000 C 305.351 57.688,305.592 58.475,305.689 58.750 C 305.786 59.025,305.923 59.512,305.993 59.833 C 306.063 60.154,306.197 60.604,306.291 60.833 C 306.385 61.063,306.626 61.813,306.827 62.500 C 307.028 63.188,307.289 64.050,307.406 64.417 C 307.524 64.783,307.788 65.646,307.994 66.333 C 308.200 67.021,308.464 67.883,308.582 68.250 C 308.699 68.617,308.964 69.479,309.171 70.167 C 309.378 70.854,309.604 71.480,309.673 71.557 C 309.800 71.701,310.500 70.023,310.500 69.574 C 310.500 69.339,310.993 67.414,311.370 66.177 C 311.466 65.862,311.641 65.187,311.760 64.677 C 311.878 64.167,312.099 63.262,312.250 62.667 C 312.401 62.071,312.626 61.147,312.749 60.613 C 312.873 60.079,313.025 59.517,313.088 59.363 C 313.151 59.209,313.307 58.652,313.435 58.125 C 314.016 55.725,314.177 55.088,314.836 52.583 C 315.222 51.117,315.603 49.593,315.682 49.197 C 315.762 48.801,315.866 48.416,315.913 48.340 C 315.959 48.264,316.105 47.726,316.237 47.143 C 316.368 46.560,316.638 45.483,316.836 44.750 C 317.034 44.017,317.306 42.967,317.440 42.417 C 317.677 41.443,317.952 40.362,318.349 38.833 C 318.456 38.421,318.665 37.671,318.813 37.167 C 319.877 33.541,319.092 32.695,314.500 32.517 L 311.917 32.417 311.868 30.931 C 311.833 29.854,311.879 29.407,312.035 29.308 C 312.153 29.233,316.433 29.171,321.546 29.169 L 330.842 29.167 331.004 29.594 C 331.241 30.217,331.209 32.092,330.958 32.292 C 330.844 32.383,329.862 32.585,328.776 32.740 C 325.435 33.216,324.086 34.501,323.250 38.000 C 322.985 39.111,322.622 40.404,322.243 41.583 C 322.126 41.950,321.870 42.813,321.674 43.500 C 321.181 45.235,320.894 46.226,320.490 47.583 C 320.299 48.225,320.037 49.125,319.907 49.583 C 319.777 50.042,319.514 50.942,319.323 51.583 C 319.133 52.225,318.860 53.163,318.717 53.667 C 318.574 54.171,318.365 54.883,318.252 55.250 C 318.020 56.005,317.431 58.006,317.075 59.250 C 316.944 59.708,316.682 60.608,316.492 61.250 C 316.114 62.529,315.851 63.436,315.452 64.833 C 315.308 65.337,315.034 66.275,314.843 66.917 C 314.652 67.558,314.389 68.458,314.258 68.917 C 313.902 70.160,313.314 72.161,313.081 72.917 C 312.968 73.283,312.759 73.996,312.617 74.500 C 312.474 75.004,312.201 75.942,312.010 76.583 C 311.819 77.225,311.557 78.125,311.427 78.583 C 311.297 79.042,311.042 79.904,310.862 80.500 C 310.681 81.096,310.489 81.781,310.435 82.022 C 310.304 82.610,310.030 82.662,307.060 82.664 C 304.012 82.667,304.057 82.692,303.425 80.583 C 303.177 79.758,302.912 78.933,302.836 78.750 C 302.759 78.567,302.531 77.854,302.328 77.167 C 302.126 76.479,301.863 75.654,301.744 75.333 C 301.625 75.012,301.362 74.188,301.161 73.500 C 300.959 72.813,300.697 71.987,300.578 71.667 C 300.203 70.651,299.167 67.331,299.167 67.146 C 299.167 67.047,299.062 66.731,298.934 66.442 C 298.806 66.153,298.535 65.354,298.331 64.667 C 298.127 63.979,297.863 63.154,297.744 62.833 C 297.625 62.512,297.362 61.688,297.161 61.000 C 296.959 60.313,296.700 59.487,296.586 59.167 C 296.472 58.846,296.209 58.021,296.002 57.333 C 295.794 56.646,295.522 55.837,295.396 55.536 C 295.270 55.235,295.167 54.871,295.167 54.728 C 295.167 54.584,295.062 54.231,294.934 53.942 C 294.806 53.653,294.535 52.854,294.331 52.167 C 294.127 51.479,293.867 50.654,293.753 50.333 C 293.639 50.012,293.376 49.188,293.169 48.500 C 292.961 47.813,292.688 47.004,292.562 46.703 C 292.436 46.402,292.333 46.041,292.333 45.900 C 292.333 45.481,291.633 43.983,291.464 44.040 C 291.296 44.096,290.780 45.536,290.581 46.500 C 290.515 46.821,290.404 47.158,290.333 47.250 C 290.263 47.342,290.155 47.679,290.094 48.000 C 290.032 48.321,289.883 48.846,289.761 49.167 C 289.639 49.487,289.378 50.313,289.180 51.000 C 288.983 51.688,288.741 52.475,288.644 52.750 C 288.547 53.025,288.407 53.512,288.333 53.833 C 288.260 54.154,288.121 54.642,288.025 54.917 C 287.859 55.389,287.731 55.811,286.834 58.833 C 286.630 59.521,286.367 60.383,286.249 60.750 C 286.131 61.117,285.905 61.867,285.746 62.417 C 285.587 62.967,285.363 63.717,285.248 64.083 C 285.006 64.857,284.539 66.391,284.007 68.167 C 283.800 68.854,283.537 69.717,283.420 70.083 C 283.304 70.450,283.079 71.200,282.920 71.750 C 282.762 72.300,282.535 73.050,282.418 73.417 C 282.300 73.783,282.039 74.646,281.838 75.333 C 281.636 76.021,281.373 76.883,281.253 77.250 C 281.133 77.617,280.867 78.479,280.661 79.167 C 279.943 81.569,279.638 82.415,279.445 82.538 C 279.192 82.698,273.973 82.700,273.735 82.539 C 273.496 82.378,273.030 81.025,272.056 77.667 C 271.910 77.162,271.697 76.450,271.582 76.083 C 271.339 75.309,270.873 73.776,270.340 72.000 C 270.134 71.313,269.870 70.450,269.754 70.083 C 269.638 69.717,269.423 69.004,269.277 68.500 C 268.791 66.823,268.319 65.256,268.147 64.750 C 267.954 64.181,267.591 62.972,267.247 61.750 C 267.000 60.875,266.743 60.015,266.153 58.083 C 265.957 57.442,265.695 56.579,265.570 56.167 C 265.445 55.754,265.183 54.892,264.987 54.250 C 264.486 52.612,264.229 51.759,263.830 50.417 C 263.640 49.775,263.379 48.913,263.250 48.500 C 263.121 48.087,262.860 47.225,262.670 46.583 C 262.479 45.942,262.209 45.042,262.069 44.583 C 261.929 44.125,261.716 43.375,261.595 42.917 C 261.473 42.458,261.299 41.896,261.206 41.667 C 261.114 41.438,260.876 40.688,260.678 40.000 C 260.480 39.313,260.209 38.412,260.075 38.000 C 259.941 37.587,259.832 37.128,259.833 36.980 C 259.834 36.512,259.147 35.112,258.562 34.389 C 257.614 33.217,257.061 32.996,253.917 32.533 L 253.083 32.410 253.034 31.011 C 253.008 30.241,253.024 29.511,253.071 29.389 C 253.141 29.207,255.088 29.167,263.832 29.167 L 274.508 29.167 274.671 29.594 M76.591 31.008 C 77.409 31.912,75.839 36.484,74.471 37.181 C 72.976 37.944,72.433 36.672,73.478 34.850 C 73.974 33.982,74.422 32.736,74.590 31.750 C 74.775 30.665,75.902 30.247,76.591 31.008 M148.982 31.573 C 148.942 31.614,148.168 31.723,147.262 31.815 C 146.357 31.908,145.538 32.062,145.441 32.159 C 145.345 32.255,145.150 32.334,145.008 32.335 C 143.297 32.345,139.745 35.562,138.375 38.343 C 136.935 41.266,136.644 42.235,135.928 46.500 C 134.801 53.208,135.422 65.502,137.094 69.583 C 138.001 71.799,138.589 73.122,138.759 73.333 C 138.870 73.471,139.015 73.761,139.081 73.977 C 139.344 74.838,142.095 77.291,143.667 78.066 C 146.619 79.522,151.004 79.527,154.417 78.078 C 155.682 77.541,159.323 74.974,160.838 73.552 L 161.833 72.618 161.833 54.984 L 161.833 37.350 161.125 36.626 C 159.222 34.680,156.304 32.885,153.917 32.193 C 152.447 31.767,149.197 31.359,148.982 31.573 M229.750 51.736 L 230.250 52.138 230.232 53.944 C 230.215 55.661,229.893 57.268,229.335 58.417 C 229.246 58.600,229.096 58.938,229.002 59.167 C 227.611 62.550,224.277 65.912,220.750 67.485 C 220.292 67.690,219.802 67.917,219.661 67.991 C 219.521 68.064,219.146 68.178,218.828 68.244 C 218.510 68.310,217.929 68.469,217.536 68.599 C 216.294 69.007,213.468 68.919,213.054 68.458 C 211.942 67.223,212.808 66.136,215.055 65.946 C 216.277 65.842,218.132 65.449,218.750 65.162 C 218.933 65.077,219.271 64.930,219.500 64.836 C 222.841 63.463,225.626 60.223,226.934 56.185 C 227.219 55.308,227.333 54.572,227.333 53.627 C 227.333 51.618,228.482 50.719,229.750 51.736 " stroke="none" fill="#fbfbfb" fill-rule="evenodd"></path></g></svg>